<svg width="69" height="68" viewBox="0 0 69 68" fill="none" xmlns="http://www.w3.org/2000/svg">
<g clip-path="url(#clip0_27_95)">
<path d="M32.777 25.088C23.618 16.222 10.595 27.726 21.86 38.99C28.793 45.924 31.845 49.298 32.777 50.356C33.709 49.297 36.76 45.923 43.694 38.99C54.959 27.725 41.937 16.221 32.777 25.088Z" fill="#76359C"/>
<path d="M64.776 32.04H57.735C57.3371 32.04 56.9556 32.1981 56.6743 32.4794C56.393 32.7607 56.235 33.1422 56.235 33.54C56.235 33.9378 56.393 34.3194 56.6743 34.6007C56.9556 34.882 57.3371 35.04 57.735 35.04H64.776C65.1738 35.04 65.5553 34.882 65.8366 34.6007C66.1179 34.3194 66.276 33.9378 66.276 33.54C66.276 33.1422 66.1179 32.7607 65.8366 32.4794C65.5553 32.1981 65.1738 32.04 64.776 32.04ZM10.277 33.541C10.2771 33.3439 10.2384 33.1486 10.163 32.9665C10.0876 32.7843 9.97703 32.6188 9.83762 32.4794C9.69822 32.3399 9.53269 32.2294 9.35052 32.154C9.16836 32.0786 8.97311 32.0399 8.77596 32.04H1.73596C1.33814 32.04 0.956607 32.1981 0.675303 32.4794C0.393998 32.7607 0.235962 33.1422 0.235962 33.54C0.235962 33.9378 0.393998 34.3194 0.675303 34.6007C0.956607 34.882 1.33814 35.04 1.73596 35.04H8.77596C8.97295 35.0401 9.16803 35.0015 9.35006 34.9262C9.5321 34.851 9.69753 34.7406 9.83691 34.6014C9.97629 34.4622 10.0869 34.2969 10.1624 34.115C10.2379 33.933 10.2768 33.738 10.277 33.541ZM32.757 57.021C32.3593 57.021 31.9779 57.1789 31.6967 57.46C31.4154 57.7411 31.2572 58.1224 31.257 58.52V65.561C31.2518 65.7612 31.2868 65.9604 31.3598 66.1468C31.4328 66.3333 31.5424 66.5032 31.6822 66.6466C31.822 66.79 31.989 66.904 32.1735 66.9818C32.358 67.0596 32.5562 67.0997 32.7565 67.0997C32.9567 67.0997 33.1549 67.0596 33.3394 66.9818C33.5239 66.904 33.691 66.79 33.8307 66.6466C33.9705 66.5032 34.0801 66.3333 34.1531 66.1468C34.2262 65.9604 34.2611 65.7612 34.256 65.561V58.52C34.2557 58.1225 34.0977 57.7414 33.8166 57.4604C33.5356 57.1793 33.1544 57.0213 32.757 57.021ZM32.755 0.0190125C32.558 0.0191437 32.3629 0.058074 32.181 0.133577C31.9991 0.209081 31.8338 0.31968 31.6946 0.459061C31.5554 0.598441 31.445 0.763873 31.3698 0.945911C31.2945 1.12795 31.2558 1.32303 31.256 1.52001V8.56001C31.256 8.95784 31.414 9.33937 31.6953 9.62067C31.9766 9.90198 32.3581 10.06 32.756 10.06C33.1538 10.06 33.5353 9.90198 33.8166 9.62067C34.0979 9.33937 34.256 8.95784 34.256 8.56001V1.52001C34.256 1.12192 34.0978 0.740139 33.8163 0.458647C33.5348 0.177155 33.1531 0.0190125 32.755 0.0190125ZM10.554 45.085L4.51096 48.7C4.34202 48.8012 4.19465 48.9347 4.07729 49.0928C3.95993 49.2509 3.87486 49.4306 3.82694 49.6217C3.77903 49.8127 3.7692 50.0112 3.79803 50.206C3.82686 50.4008 3.89378 50.5881 3.99496 50.757C4.09615 50.926 4.22961 51.0733 4.38775 51.1907C4.54588 51.3081 4.72559 51.3931 4.9166 51.441C5.10761 51.4889 5.30618 51.4988 5.50099 51.4699C5.69579 51.4411 5.88302 51.3742 6.05196 51.273L12.095 47.658C12.2639 47.5568 12.4113 47.4234 12.5286 47.2652C12.646 47.1071 12.7311 46.9274 12.779 46.7364C12.8269 46.5454 12.8367 46.3468 12.8079 46.152C12.7791 45.9572 12.7121 45.77 12.611 45.601C12.5098 45.4321 12.3763 45.2847 12.2182 45.1673C12.06 45.05 11.8803 44.9649 11.6893 44.917C11.4983 44.8691 11.2997 44.8593 11.1049 44.8881C10.9101 44.9169 10.7229 44.9838 10.554 45.085ZM61.516 16.323C61.4148 16.1538 61.2813 16.0061 61.1231 15.8885C60.9648 15.7709 60.785 15.6856 60.5938 15.6375C60.4026 15.5894 60.2038 15.5794 60.0087 15.6081C59.8136 15.6369 59.6262 15.7038 59.457 15.805L53.417 19.422C53.1364 19.5913 52.9189 19.8477 52.7977 20.152C52.6764 20.4564 52.6579 20.7921 52.7452 21.1079C52.8324 21.4237 53.0205 21.7023 53.2808 21.9013C53.5411 22.1003 53.8593 22.2087 54.187 22.21C54.45 22.21 54.716 22.141 54.958 21.996L61 18.379C61.3408 18.1746 61.5866 17.8433 61.6833 17.4578C61.7801 17.0723 61.7199 16.6642 61.516 16.323ZM21.361 54.069C21.0131 53.8759 20.6027 53.8287 20.2201 53.9378C19.8374 54.0469 19.5137 54.3034 19.32 54.651L15.903 60.807C15.776 61.0352 15.7108 61.2926 15.7139 61.5537C15.7169 61.8149 15.7882 62.0707 15.9206 62.2958C16.0529 62.5209 16.2418 62.7075 16.4685 62.8372C16.6952 62.9669 16.9518 63.0351 17.213 63.035C17.4807 63.0354 17.7437 62.9641 17.9746 62.8285C18.2055 62.6929 18.3958 62.498 18.526 62.264L21.943 56.108C22.136 55.7604 22.1831 55.3504 22.074 54.968C21.9649 54.5857 21.7084 54.2623 21.361 54.069ZM49.026 4.23201C48.6781 4.03913 48.2679 3.9923 47.8855 4.10182C47.5032 4.21133 47.18 4.46823 46.987 4.81601L43.569 10.972C43.4419 11.2001 43.3767 11.4573 43.3797 11.7183C43.3827 11.9794 43.4539 12.2351 43.5862 12.4601C43.7185 12.6851 43.9072 12.8717 44.1338 13.0013C44.3604 13.1309 44.6169 13.1991 44.878 13.199C45.405 13.199 45.918 12.921 46.191 12.426L49.609 6.27101C49.8017 5.92323 49.8485 5.51321 49.7392 5.13093C49.6299 4.74866 49.3734 4.42537 49.026 4.23201ZM4.51196 18.379L10.553 21.997C10.722 22.0982 10.9093 22.1651 11.1041 22.1939C11.299 22.2227 11.4976 22.2128 11.6887 22.1649C11.8797 22.1169 12.0595 22.0318 12.2176 21.9144C12.3758 21.797 12.5093 21.6495 12.6105 21.4805C12.7116 21.3115 12.7786 21.1242 12.8074 20.9293C12.8362 20.7345 12.8263 20.5359 12.7783 20.3448C12.7304 20.1537 12.6452 19.974 12.5278 19.8158C12.4104 19.6577 12.263 19.5242 12.094 19.423L6.05296 15.806C5.88389 15.6993 5.69517 15.6274 5.49792 15.5946C5.30067 15.5619 5.09885 15.5689 4.90435 15.6152C4.70984 15.6616 4.52657 15.7464 4.36531 15.8646C4.20404 15.9828 4.06804 16.1321 3.9653 16.3037C3.86256 16.4752 3.79516 16.6655 3.76705 16.8635C3.73895 17.0615 3.7507 17.2631 3.80164 17.4564C3.85257 17.6498 3.94165 17.831 4.06363 17.9895C4.18562 18.1479 4.33805 18.2803 4.51196 18.379ZM18.527 4.81601C18.3339 4.46805 18.0105 4.21104 17.6279 4.10151C17.2453 3.99199 16.8349 4.03894 16.487 4.23201C16.139 4.42509 15.882 4.74849 15.7725 5.13106C15.6629 5.51364 15.7099 5.92405 15.903 6.27201L19.321 12.429C19.4127 12.6082 19.5395 12.7671 19.6939 12.8962C19.8483 13.0254 20.0271 13.1221 20.2196 13.1807C20.4122 13.2393 20.6146 13.2585 20.8147 13.2372C21.0149 13.216 21.2087 13.1546 21.3847 13.0569C21.5606 12.9592 21.7151 12.827 21.8389 12.6683C21.9627 12.5096 22.0533 12.3276 22.1053 12.1332C22.1573 11.9387 22.1697 11.7358 22.1416 11.5365C22.1135 11.3372 22.0456 11.1455 21.942 10.973L18.527 4.81601ZM37.94 37.413L67.392 45.109L56.521 48.946L62.066 54.491L55.701 60.854L50.465 55.691L47.502 64.993L37.94 37.413ZM55.686 56.625L57.823 54.491L51.034 47.703L57.163 45.538L42.615 41.736L47.382 55.483L49.089 50.124L55.686 56.625Z" fill="#1A2559"/>
</g>
<defs>
<clipPath id="clip0_27_95">
<rect width="68" height="68" fill="white" transform="translate(0.125)"/>
</clipPath>
</defs>
</svg>
