<svg width="66" height="42" viewBox="0 0 66 42" fill="none" xmlns="http://www.w3.org/2000/svg">
<path d="M5.68 31.28C4.05333 31.28 2.77333 30.8267 1.84 29.92C0.906667 28.9867 0.44 27.72 0.44 26.12C0.44 25.6933 1.16 19.36 2.6 7.12C2.97333 3.97333 3.97333 1.98667 5.6 1.16C6.34667 0.759998 7.24 0.559999 8.28 0.559999C11.8 0.559999 13.56 2.18666 13.56 5.44C13.56 5.70667 13.5467 5.98667 13.52 6.28C13.2533 9.85333 11.0133 13.4933 6.8 17.2C6.66667 18.5067 6.52 19.7733 6.36 21C6.04 23.7467 5.88 25.2667 5.88 25.56C5.88 26.9467 6.48 27.64 7.68 27.64C8.98667 27.64 10.2 26.8933 11.32 25.4C12.4667 23.88 13.3467 21.9467 13.96 19.6C14.2 19.68 14.5333 19.9067 14.96 20.28C15.3867 20.6267 15.68 20.9333 15.84 21.2C15.4133 23.4133 14.4533 25.5333 12.96 27.56C12.2133 28.6 11.2667 29.4533 10.12 30.12C8.81333 30.8933 7.33333 31.28 5.68 31.28ZM7.24 13.2C9.69333 10.5067 10.92 8.09333 10.92 5.96C10.92 4.68 10.44 4.04 9.48 4.04C8.86667 4.09333 8.45333 4.49333 8.24 5.24C8.05333 5.98666 7.86667 7.2 7.68 8.88C7.52 10.56 7.41333 11.6 7.36 12L7.24 13.2ZM23.0266 11.76C25.4799 11.76 27.5199 12.5467 29.1466 14.12C30.7999 15.6933 31.6266 17.6133 31.6266 19.88C31.6266 23.32 30.6132 26.08 28.5866 28.16C26.5866 30.2133 24.1599 31.24 21.3066 31.24C18.4532 31.24 16.1866 30.4267 14.5066 28.8C12.8532 27.1733 12.0266 25.16 12.0266 22.76C12.0266 19.4 13.0532 16.7333 15.1066 14.76C17.1866 12.76 19.8266 11.76 23.0266 11.76ZM22.2266 15C20.9732 15 19.9199 15.72 19.0666 17.16C18.2132 18.6 17.7466 20.4133 17.6666 22.6C17.6666 24.1467 17.9732 25.4267 18.5866 26.44C19.2266 27.4533 20.1866 27.96 21.4666 27.96C22.7466 27.96 23.8132 27.2533 24.6666 25.84C25.5466 24.4267 25.9866 22.8133 25.9866 21C25.9866 19.1867 25.6799 17.7467 25.0666 16.68C24.4532 15.56 23.5066 15 22.2266 15ZM39.8078 11.76C42.2611 11.76 44.3011 12.5467 45.9278 14.12C47.5811 15.6933 48.4078 17.6133 48.4078 19.88C48.4078 23.32 47.3945 26.08 45.3678 28.16C43.3678 30.2133 40.9411 31.24 38.0878 31.24C35.2345 31.24 32.9678 30.4267 31.2878 28.8C29.6345 27.1733 28.8078 25.16 28.8078 22.76C28.8078 19.4 29.8345 16.7333 31.8878 14.76C33.9678 12.76 36.6078 11.76 39.8078 11.76ZM39.0078 15C37.7545 15 36.7011 15.72 35.8478 17.16C34.9945 18.6 34.5278 20.4133 34.4478 22.6C34.4478 24.1467 34.7545 25.4267 35.3678 26.44C36.0078 27.4533 36.9678 27.96 38.2478 27.96C39.5278 27.96 40.5945 27.2533 41.4478 25.84C42.3278 24.4267 42.7678 22.8133 42.7678 21C42.7678 19.1867 42.4611 17.7467 41.8478 16.68C41.2345 15.56 40.2878 15 39.0078 15ZM50.5091 11.72C52.2424 11.72 53.2557 12.16 53.5491 13.04C54.8024 12.16 56.3891 11.72 58.3091 11.72C60.2291 11.72 61.8824 12.5067 63.2691 14.08C64.6557 15.6533 65.3491 17.4933 65.3491 19.6C65.3491 19.8933 65.3357 20.2 65.3091 20.52C65.0157 24.0133 63.8424 26.68 61.7891 28.52C59.7357 30.3333 57.0557 31.24 53.7491 31.24C53.0024 31.24 52.1891 31.1467 51.3091 30.96L50.0291 41.96H44.7891C46.4957 27.2667 47.6424 17.2933 48.2291 12.04C48.7891 11.8267 49.5491 11.72 50.5091 11.72ZM59.7091 19.88C59.7091 18.7067 59.4424 17.6667 58.9091 16.76C58.3757 15.8533 57.5491 15.4 56.4291 15.4C54.9091 15.4 53.7491 16.3867 52.9491 18.36C52.4157 22.3067 52.1091 24.6 52.0291 25.24C52.0024 26.04 52.2557 26.64 52.7891 27.04C53.3224 27.44 53.9757 27.64 54.7491 27.64C56.1091 27.64 57.2291 27.0267 58.1091 25.8C59.1757 24.28 59.7091 22.3067 59.7091 19.88Z" fill="white"/>
</svg>
