<svg width="78" height="68" viewBox="0 0 78 68" fill="none" xmlns="http://www.w3.org/2000/svg">
<path d="M32.0836 17.5749L32.1163 17.7215C32.3864 18.5535 32.9131 19.2786 33.6209 19.7927C34.3287 20.3067 35.1811 20.5833 36.0559 20.5828H40.8733C41.748 20.5829 42.6002 20.3062 43.3079 19.7922C44.0156 19.2782 44.5425 18.5533 44.8129 17.7215C44.8129 17.7215 44.8305 17.6561 44.8509 17.5731H54.5784L54.5802 32.6409L44.57 42.651L41.9357 50.4913L44.1541 50.078L50.6459 48.8681L54.581 44.9338V58.1956H22.4948V17.5749H32.0836Z" fill="#76359C"/>
<path d="M47.856 46.6922L45.884 47.0595L46.4722 45.3092L47.856 46.6922ZM73.8082 21.9534L71.4149 19.5611C71.7269 19.2652 72.1402 19.1 72.5701 19.0992C73.0202 19.0992 73.452 19.278 73.7703 19.5963C74.0886 19.9146 74.2674 20.3464 74.2674 20.7965C74.2668 21.2265 74.1026 21.6401 73.8082 21.9534Z" fill="#76359C"/>
<path d="M75.6451 17.725C74.8296 16.9093 73.7235 16.4509 72.5701 16.4507C71.999 16.4505 71.4335 16.5631 70.9061 16.7821C70.3787 17.0011 69.8998 17.3222 69.4968 17.7268L63.8546 23.369L63.8528 12.6083C63.8524 11.2709 63.321 9.98834 62.3755 9.04249C61.43 8.09664 60.1476 7.56482 58.8102 7.56389H49.8722L49.8731 5.10087C49.8726 3.80362 49.357 2.55965 48.4395 1.64252C47.522 0.725386 46.2779 0.210175 44.9806 0.210175H31.8028C31.1605 0.210059 30.5244 0.336481 29.931 0.582221C29.3376 0.82796 28.7984 1.1882 28.3442 1.64237C27.8901 2.09653 27.5298 2.63573 27.2841 3.22915C27.0384 3.82257 26.9119 4.45859 26.9121 5.10087L26.9112 7.56565H18.5171C17.1795 7.56589 15.8967 8.0973 14.9508 9.04306C14.0049 9.98882 13.4732 11.2715 13.4728 12.6091V62.8187C13.4737 64.1561 14.0055 65.4385 14.9514 66.384C15.8972 67.3295 17.1797 67.8609 18.5171 67.8613H58.8093C60.1467 67.8609 61.4293 67.3295 62.3751 66.384C63.321 65.4385 63.8528 64.1561 63.8537 62.8187V35.6611L75.646 23.8715C76.0496 23.4677 76.3695 22.9882 76.5876 22.4606C76.8056 21.9329 76.9175 21.3674 76.9168 20.7965C76.9173 20.2261 76.8052 19.6611 76.587 19.1341C76.3688 18.607 76.0487 18.1282 75.6451 17.725ZM49.8713 12.8299L49.8722 10.2141H58.8102C59.4448 10.2151 60.053 10.4677 60.5015 10.9165C60.95 11.3653 61.2021 11.9737 61.2026 12.6083V26.0201L57.2321 29.9906L57.2303 14.9247H49.3953C49.7081 14.2706 49.8707 13.5549 49.8713 12.8299ZM29.5605 5.10087C29.5615 4.50648 29.798 3.93671 30.2183 3.51641C30.6386 3.09611 31.2084 2.85957 31.8028 2.85864H44.9806C45.575 2.85957 46.1448 3.09611 46.5651 3.51641C46.9854 3.93671 47.2219 4.50648 47.2229 5.10087V12.8299C47.2216 13.287 47.0803 13.7327 46.818 14.107C46.5558 14.4814 46.1851 14.7664 45.756 14.9238H45.6774V14.9485C45.4566 15.0209 45.2252 15.0704 44.9806 15.0713H42.3613V16.3968C42.3613 16.4313 42.3622 16.4622 42.3639 16.4896C42.3509 16.8766 42.1883 17.2435 41.9103 17.5132C41.6323 17.7828 41.2605 17.9341 40.8732 17.9352H36.0558C35.8563 17.9346 35.6589 17.894 35.4753 17.8159C35.2917 17.7377 35.1256 17.6236 34.9868 17.4802C34.848 17.3368 34.7394 17.167 34.6672 16.981C34.5951 16.7949 34.561 16.5963 34.5669 16.3968V15.0713H31.8019C31.2077 15.0701 30.6382 14.8336 30.218 14.4136C29.7977 13.9935 29.561 13.4241 29.5596 12.8299L29.5605 5.10087ZM32.0836 17.5749L32.1163 17.7215C32.3863 18.5535 32.913 19.2786 33.6208 19.7927C34.3286 20.3067 35.1811 20.5833 36.0558 20.5828H40.8732C41.7479 20.5829 42.6002 20.3062 43.3079 19.7922C44.0156 19.2782 44.5424 18.5533 44.8128 17.7215C44.8128 17.7215 44.8305 17.6561 44.8508 17.5731H54.5783L54.5801 32.6409L44.57 42.651L41.9356 50.4913L44.154 50.078L50.6458 48.8681L54.581 44.9339V58.1956H22.4947V17.5749H32.0836ZM47.8561 46.6921L45.8849 47.0595L46.4731 45.3092L47.8561 46.6921ZM61.2035 62.8187C61.2021 63.4531 60.9493 64.0611 60.5006 64.5095C60.0519 64.9579 59.4437 65.2102 58.8093 65.2111L18.5171 65.2129C17.8825 65.2117 17.2741 64.9591 16.8252 64.5104C16.3763 64.0617 16.1235 63.4534 16.1221 62.8187V12.6091C16.1233 11.9742 16.376 11.3656 16.8248 10.9166C17.2737 10.4675 17.8822 10.2146 18.5171 10.2132H26.9103L26.9094 12.8299C26.9103 13.5814 27.0843 14.2888 27.3872 14.9247L19.8453 14.9238V60.8467H57.2295V42.2845L61.2035 38.3114V62.8187ZM61.268 34.5007H61.2035V34.5652L50.3394 45.4284L47.9399 43.0281L69.5366 21.4306L71.9387 23.8327L61.268 34.5007ZM73.8082 21.9534L71.415 19.561C71.7269 19.2652 72.1402 19.1 72.5701 19.0992C73.0202 19.0992 73.452 19.278 73.7703 19.5963C74.0886 19.9146 74.2674 20.3463 74.2674 20.7965C74.2668 21.2265 74.1026 21.6401 73.8082 21.9534ZM34.8583 9.66306H41.9233C42.2746 9.66306 42.6115 9.52349 42.86 9.27507C43.1084 9.02664 43.248 8.68971 43.248 8.33838C43.248 7.98705 43.1084 7.65012 42.86 7.40169C42.6115 7.15327 42.2746 7.01371 41.9233 7.01371H34.8583C34.507 7.01371 34.1701 7.15327 33.9217 7.40169C33.6732 7.65012 33.5337 7.98705 33.5337 8.33838C33.5337 8.68971 33.6732 9.02664 33.9217 9.27507C34.1701 9.52349 34.507 9.66306 34.8583 9.66306Z" fill="#1A2559"/>
</svg>
