<svg width="65" height="68" viewBox="0 0 65 68" fill="none" xmlns="http://www.w3.org/2000/svg">
<g clip-path="url(#clip0_27_84)">
<path d="M28.294 64.2671H32.6074V59.9537H28.294V64.2671ZM61.0274 31.5358H56.7129V35.8482H61.0274V31.5358ZM31.0434 32.2757C30.7742 32.2757 30.5161 32.3826 30.3258 32.5729C30.1354 32.7633 30.0285 33.0214 30.0285 33.2906C30.0285 33.5598 30.1354 33.8179 30.3258 34.0082C30.5161 34.1986 30.7742 34.3055 31.0434 34.3055C31.3126 34.3055 31.5707 34.1986 31.7611 34.0082C31.9514 33.8179 32.0583 33.5598 32.0583 33.2906C32.0583 33.0214 31.9514 32.7633 31.7611 32.5729C31.5707 32.3826 31.3126 32.2757 31.0434 32.2757ZM56.7129 3.81613V8.12855H61.0274V3.81613H56.7129ZM28.294 8.12956H32.6074V3.81613H28.294V8.12956ZM56.7129 64.2671H61.0263V59.9537H56.7129V64.2671ZM16.2001 40.5016H19.4986V26.0369H16.2001V40.5016Z" fill="#76359C"/>
<path d="M64.0711 11.1723V0.771362H53.6681V11.1723H57.3462V22.4583C53.5565 13.4813 45.4675 6.77972 35.6512 4.9153V0.771362H25.2502V4.7925C11.2361 7.11363 0.556046 19.2775 0.554016 33.9462C0.556046 48.6149 11.2361 60.7768 25.2502 63.1V67.3109H35.6532V62.9832C45.4726 61.1188 53.5585 54.4041 57.3472 45.422V56.9089H53.6681V67.3099H64.0691V56.9089H60.391V38.894H64.0711V28.491H60.391V11.1723H64.0711ZM61.0263 64.2661L56.7129 64.2681V59.9547H61.0263V64.2661ZM28.294 3.81614H32.6074V8.12957H28.294V3.81614ZM32.6084 64.2661L28.295 64.2681V59.9547H32.6084V64.2661ZM61.0273 35.8482L56.7129 35.8492V31.5358H61.0273V35.8482ZM56.1455 38.894C54.1674 49.366 46.0409 57.6742 35.6532 59.8816V56.9089H25.2502V60.0115C12.9331 57.728 3.59575 46.9271 3.59981 33.9462C3.59575 20.9653 12.9331 10.1645 25.2512 7.88193V11.1743H35.6522V8.01691C45.8725 10.1868 53.9046 18.2616 56.0461 28.493H53.6691V38.896H56.1455V38.894ZM56.7129 3.81614H61.0273V8.12855H56.7129V3.81614Z" fill="#1A2559"/>
<path d="M50.8659 33.0348C50.8608 32.9841 50.8497 32.9354 50.8395 32.8866C50.8314 32.8471 50.8294 32.8075 50.8182 32.7679C50.8152 32.7577 50.8091 32.7486 50.806 32.7374C50.7918 32.6928 50.7715 32.6502 50.7533 32.6055C50.733 32.5558 50.7147 32.505 50.6893 32.4583C50.671 32.4248 50.6467 32.3944 50.6264 32.3619C50.5939 32.3122 50.5635 32.2604 50.5249 32.2148C50.5005 32.1853 50.4701 32.16 50.4427 32.1315C50.4021 32.0899 50.3635 32.0463 50.3179 32.0097C50.2864 31.9834 50.2499 31.9631 50.2164 31.9397C50.1697 31.9072 50.123 31.8727 50.0722 31.8463C50.0398 31.8291 50.0053 31.8169 49.9707 31.8017C49.9125 31.774 49.8525 31.7503 49.7911 31.7306L49.7698 31.7225C49.7698 31.7225 49.7059 31.7032 49.5262 31.6444C48.2667 31.2171 42.5527 28.9863 38.2819 23.0358L37.4364 21.8625L36.2216 22.644C32.9921 24.7246 29.4276 25.294 26.5351 25.2919C25.1957 25.2932 23.8588 25.175 22.5404 24.9388V22.9931H13.1533V43.5464H22.5404V41.4333C23.8594 41.1958 25.1969 41.0762 26.5371 41.0761C29.4297 41.0761 32.9971 41.6454 36.2216 43.726L37.4385 44.5096L38.2819 43.3343C40.3133 40.52 42.9141 38.1644 45.9151 36.4206C46.8213 35.8914 47.7631 35.4254 48.7336 35.0261C49.0776 34.886 49.3476 34.7896 49.5272 34.7277C49.7069 34.6678 49.7708 34.6516 49.7708 34.6496C49.786 34.6455 49.7992 34.6374 49.8134 34.6323C49.8337 34.6262 49.851 34.6161 49.8713 34.609C49.9992 34.5623 50.1179 34.5004 50.2255 34.4242C50.2417 34.4131 50.258 34.405 50.2732 34.3928C50.3847 34.3063 50.4838 34.2049 50.5675 34.0914C50.5868 34.066 50.603 34.0406 50.6213 34.0142C50.7005 33.8934 50.7644 33.7635 50.8071 33.6255C50.8091 33.6184 50.8142 33.6133 50.8162 33.6052C50.8273 33.5677 50.8284 33.5301 50.8365 33.4915C50.8476 33.4398 50.8588 33.388 50.8649 33.3352C50.869 33.2865 50.8679 33.2388 50.8679 33.1901C50.869 33.1383 50.871 33.0866 50.8659 33.0348ZM19.4976 40.5016H16.1991V26.0369H19.4976V40.5016ZM34.8545 31.9387C34.5773 31.1486 34.062 30.4639 33.3794 29.9789C32.6969 29.494 31.8807 29.2326 31.0434 29.2309C29.9667 29.2309 28.9341 29.6586 28.1728 30.4199C27.4114 31.1813 26.9837 32.2139 26.9837 33.2906C26.9837 34.3673 27.4114 35.3999 28.1728 36.1612C28.9341 36.9226 29.9667 37.3503 31.0434 37.3503C31.8188 37.3494 32.5776 37.1261 33.2298 36.7067C33.8819 36.2873 34.4 35.6896 34.7225 34.9845H42.5182C40.3108 36.5134 38.3366 38.3539 36.657 40.4488C33.1331 38.5438 29.4743 38.0333 26.5392 38.0333C24.9681 38.0333 23.603 38.1795 22.5424 38.3459V28.0251C23.601 28.1906 24.966 28.3367 26.5371 28.3367C29.4723 28.3367 33.1301 27.8262 36.6549 25.9222C38.5427 28.278 40.8018 30.3105 43.3433 31.9397L34.8545 31.9387ZM32.0583 33.2896C32.0573 33.5584 31.95 33.8159 31.7599 34.006C31.5698 34.1961 31.3123 34.3034 31.0434 34.3045C30.7744 34.304 30.5166 34.1969 30.3263 34.0066C30.1361 33.8164 30.029 33.5586 30.0285 33.2896C30.0293 33.0206 30.1365 32.763 30.3266 32.5728C30.5168 32.3826 30.7745 32.2754 31.0434 32.2746C31.6026 32.2767 32.0563 32.7293 32.0583 33.2896Z" fill="#1A2559"/>
</g>
<defs>
<clipPath id="clip0_27_84">
<rect width="63.9403" height="68" fill="white" transform="translate(0.404846)"/>
</clipPath>
</defs>
</svg>
