<svg width="76" height="68" viewBox="0 0 76 68" fill="none" xmlns="http://www.w3.org/2000/svg">
<path d="M58.9945 10.0046H18.0714V32.178H58.9945V10.0046ZM15.3234 53.8064L16.6143 47.6669H60.2034L61.4975 53.8064H15.3234Z" fill="#76359C"/>
<path d="M68.5674 40.1189V0.517029H8.09055V40.1189L1.7536 67.5715H74.9043L68.5674 40.1189ZM11.3286 3.7562H65.326V38.6758H11.3286V3.7562ZM10.9962 41.915H65.6596L70.8319 64.3334H5.82281L10.9962 41.915ZM14.8333 35.4172H62.2326V6.76655H14.8333V35.4172ZM18.0714 10.0046H58.9945V32.178H18.0714V10.0046ZM44.2083 58.9474H16.2074C15.778 58.9474 15.3662 59.118 15.0625 59.4216C14.7589 59.7252 14.5883 60.137 14.5883 60.5664C14.5883 60.9958 14.7589 61.4076 15.0625 61.7113C15.3662 62.0149 15.778 62.1855 16.2074 62.1855H44.2083C44.6377 62.1855 45.0495 62.0149 45.3531 61.7113C45.6567 61.4076 45.8273 60.9958 45.8273 60.5664C45.8273 60.137 45.6567 59.7252 45.3531 59.4216C45.0495 59.118 44.6377 58.9474 44.2083 58.9474ZM59.9972 58.9474H51.6106C51.1812 58.9474 50.7693 59.118 50.4657 59.4216C50.1621 59.7252 49.9915 60.137 49.9915 60.5664C49.9915 60.9958 50.1621 61.4076 50.4657 61.7113C50.7693 62.0149 51.1812 62.1855 51.6106 62.1855H59.9972C60.4266 62.1855 60.8384 62.0149 61.1421 61.7113C61.4457 61.4076 61.6163 60.9958 61.6163 60.5664C61.6163 60.137 61.4457 59.7252 61.1421 59.4216C60.8384 59.118 60.4266 58.9474 59.9972 58.9474ZM62.8316 44.4321H13.986L11.3297 57.0455H65.4901L65.0778 55.0908L62.8316 44.4321ZM15.3234 53.8064L16.6143 47.6669H60.2034L61.4975 53.8064H15.3234Z" fill="#1A2559"/>
</svg>
